<svg width="512" height="512" xmlns="http://www.w3.org/2000/svg" class="svg-inline--fa fa-car fa-w-16">

 <g>
  <title>background</title>
  <rect fill="none" id="canvas_background" height="402" width="582" y="-1" x="-1"/>
 </g>
 <g>
  <title>Layer 1</title>
  <path stroke="null" id="svg_1" d="m467.0458,153.70833l-54.60798,0l-15.1775,-44.09167c-15.59706,-45.33174 -52.82024,-74.61666 -94.84111,-74.61666l-115.83787,0c-42.01175,0 -79.24405,29.28492 -94.85024,74.61666l-15.17749,44.09167l-54.59886,0c-7.12357,0 -12.34996,7.77963 -10.61695,15.80304l5.47266,25.4375c1.2131,5.65984 5.59122,9.63445 10.61695,9.63445l18.30603,0c-12.24963,12.43258 -20.13937,30.5038 -20.13937,50.875l0,50.875c0,17.08552 5.61859,32.507 14.59374,44.44142l0,57.30857c0,18.72836 13.07053,33.91666 29.1875,33.91666l29.18749,0c16.11697,0 29.1875,-15.1883 29.1875,-33.91666l0,-33.91667l230.49995,0l1,33.91667c8,-133.27164 -27.92947,24.91666 -11.8125,24.91666l72.18749,9c16.11697,0 29.18749,-15.1883 29.18749,-33.91666l0,-57.30857c8.97516,-11.92382 14.59375,-27.34531 14.59375,-44.44142l0,-50.875c0,-20.3712 -7.88974,-38.44242 -20.13025,-50.875l18.30603,0c5.02573,0 9.40385,-3.97461 10.61695,-9.63445l5.47266,-25.4375c1.72389,-8.02341 -3.5025,-15.80304 -10.62607,-15.80304zm-321.11717,-18.89795c6.64928,-19.3113 22.74801,-31.97705 40.65271,-31.97705l115.83787,0c17.9047,0 34.00343,12.66575 40.65271,31.97705l18.17833,52.81461l-233.49995,0l18.17833,-52.81461zm-47.36583,171.31096c-17.51249,0 -29.18749,-13.52427 -29.18749,-33.81068s11.675,-33.81067 29.18749,-33.81067s43.78124,30.4296 43.78124,50.71601s-26.26874,16.90534 -43.78124,16.90534zm339.24078,-171.31096c-17.5125,0 -43.78124,3.38107 -43.78124,-16.90533s-21.09709,120.59494 -3.58459,120.59494s29.18749,13.52427 29.18749,33.81067s-11.675,33.81068 -29.18749,33.81068l47.36583,-171.31096z" fill="currentColor"/>
  <g transform="rotate(0.45463570952415466 369.49996948243745,353.9999694824218) " stroke="null" id="svg_6">
   <path transform="rotate(0.45463570952415466 369.49996948243745,353.9999694824218) " stroke="null" id="svg_5" d="m369.499968,235.541429c-67.193315,0 -121.634613,53.019752 -121.634613,118.458544s54.441299,118.458544 121.634613,118.458544s121.634613,-53.019752 121.634613,-118.458544s-54.441299,-118.458544 -121.634613,-118.458544zm70.62655,131.832896c0,3.152526 -2.648496,5.731865 -5.885546,5.731865l-45.122518,0l0,43.944299c0,3.152526 -2.648496,5.731865 -5.885546,5.731865l-27.46588,0c-3.23705,0 -5.885546,-2.579339 -5.885546,-5.731865l0,-43.944299l-45.122518,0c-3.23705,0 -5.885546,-2.579339 -5.885546,-5.731865l0,-26.748704c0,-3.152526 2.648496,-5.731865 5.885546,-5.731865l45.122518,0l0,-43.944299c0,-3.152526 2.648496,-5.731865 5.885546,-5.731865l27.46588,0c3.23705,0 5.885546,2.579339 5.885546,5.731865l0,43.944299l45.122518,0c3.23705,0 5.885546,2.579339 5.885546,5.731865l0,26.748704z" fill="#2626d6"/>
  </g>
 </g>
</svg>